{
  "asset": {
    "version": "2.0",
    "generator": "THREE.GLTFExporter"
  },
  "scenes": [
    {
      "name": "Scene",
      "nodes": [
        0,
        2
      ]
    }
  ],
  "scene": 0,
  "nodes": [
    {
      "matrix": [
        1,
        0,
        0,
        0,
        0,
        1,
        0,
        0,
        0,
        0,
        1,
        0,
        -12.436875129348937,
        12.49124684046197,
        15.727880831388049,
        1
      ],
      "name": "PointLight",
      "extensions": {
        "KHR_lights_punctual": {
          "light": 0
        }
      }
    },
    {
      "matrix": [
        -4.440892098500626e-15,
        2.990407922560871,
        9.542403285162774,
        0,
        0,
        -9.542403285162777,
        2.990407922560871,
        0,
        10.000000000000004,
        0,
        -4.440892098500626e-15,
        0,
        0,
        0,
        0,
        1
      ],
      "name": "Body1",
      "extras": {
        "transformData": {
          "eulerOrder": "ZYX",
          "scale": [
            10,
            10,
            10
          ],
          "parentMatrix": {
            "elements": [
              -2.2204460492503132e-17,
              0.10000000000000003,
              0,
              0,
              -0.10000000000000003,
              -2.2204460492503132e-17,
              0,
              0,
              0,
              0,
              0.1,
              0,
              0,
              4.7536929153482745,
              0,
              1
            ]
          },
          "parentMatrixWorld": {
            "elements": [
              -2.2204460492503132e-17,
              0.10000000000000003,
              0,
              0,
              -0.10000000000000003,
              -2.2204460492503132e-17,
              0,
              0,
              0,
              0,
              0.1,
              0,
              0,
              4.7536929153482745,
              0,
              1
            ]
          }
        }
      },
      "mesh": 0
    },
    {
      "matrix": [
        -2.2204460492503132e-17,
        0.10000000000000003,
        0,
        0,
        -0.10000000000000003,
        -2.2204460492503132e-17,
        0,
        0,
        0,
        0,
        0.1,
        0,
        0,
        4.7536929153482745,
        0,
        1
      ],
      "name": "Bad_Clientele_Logo_v5",
      "extras": {
        "transformData": {
          "eulerOrder": "ZYX",
          "parentMatrix": {
            "elements": [
              1,
              0,
              0,
              0,
              0,
              1,
              0,
              0,
              0,
              0,
              1,
              0,
              0,
              0,
              0,
              1
            ]
          },
          "parentMatrixWorld": {
            "elements": [
              1,
              0,
              0,
              0,
              0,
              1,
              0,
              0,
              0,
              0,
              1,
              0,
              0,
              0,
              0,
              1
            ]
          }
        }
      },
      "children": [
        1
      ]
    }
  ],
  "extensions": {
    "KHR_lights_punctual": {
      "lights": [
        {
          "name": "PointLight",
          "color": [
            0.9911020971136257,
            0.9911020971136257,
            0.9911020971136257
          ],
          "intensity": 1,
          "type": "point"
        }
      ]
    }
  },
  "bufferViews": [
    {
      "buffer": 0,
      "byteOffset": 0,
      "byteLength": 345312,
      "target": 34962,
      "byteStride": 12
    },
    {
      "buffer": 0,
      "byteOffset": 345312,
      "byteLength": 345312,
      "target": 34962,
      "byteStride": 12
    },
    {
      "buffer": 0,
      "byteOffset": 690624,
      "byteLength": 230208,
      "target": 34962,
      "byteStride": 8
    }
  ],
  "buffers": [
    {
      "byteLength": 920832,
      "uri": "data:application/octet-stream;base64,"
    }
  ],
  "accessors": [
    {
      "bufferView": 0,
      "componentType": 5126,
      "count": 28776,
      "max": [
        0.07000000029802322,
        3.8031728267669678,
        3.91169810295105
      ],
      "min": [
        -1.2549999952316284,
        -3.952038288116455,
        -4.8419623374938965
      ],
      "type": "VEC3"
    },
    {
      "bufferView": 1,
      "componentType": 5126,
      "count": 28776,
      "max": [
        1,
        1,
        1
      ],
      "min": [
        -1,
        -1,
        -1
      ],
      "type": "VEC3"
    },
    {
      "bufferView": 2,
      "componentType": 5126,
      "count": 28776,
      "max": [
        11.786840438842773,
        12.518088340759277
      ],
      "min": [
        -12.646244049072266,
        -3.602874517440796
      ],
      "type": "VEC2"
    }
  ],
  "materials": [
    {
      "pbrMetallicRoughness": {
        "baseColorFactor": [
          0,
          0,
          0,
          1
        ],
        "metallicFactor": 0.5,
        "roughnessFactor": 0.5
      },
      "name": "Leather - Weathered"
    }
  ],
  "meshes": [
    {
      "primitives": [
        {
          "mode": 4,
          "attributes": {
            "POSITION": 0,
            "NORMAL": 1,
            "TEXCOORD_0": 2
          },
          "material": 0
        }
      ]
    }
  ],
  "extensionsUsed": [
    "KHR_lights_punctual"
  ]
}