{
  "asset": {
    "version": "2.0",
    "generator": "THREE.GLTFExporter"
  },
  "scenes": [
    {
      "name": "Scene",
      "nodes": [0, 1, 3]
    }
  ],
  "scene": 0,
  "nodes": [
    {
      "matrix": [
        1, 0, 0, 0, 0, 1, 0, 0, 0, 0, 1, 0, -12.436875129348937,
        12.49124684046197, 15.727880831388049, 1
      ],
      "name": "PointLight",
      "extensions": {
        "KHR_lights_punctual": {
          "light": 0
        }
      }
    },
    {
      "matrix": [
        0.1, 0, 0, 0, 0, 0.04601997847838516, -0.08878153851364014, 0, 0,
        0.08878153851364014, 0.04601997847838516, 0, -0.08197418120785116,
        8.064550685223066, 0, 1
      ],
      "name": "Elektra_Steam_Knob_v5",
      "extras": {
        "transformData": {
          "eulerOrder": "ZYX",
          "parentMatrix": {
            "elements": [1, 0, 0, 0, 0, 1, 0, 0, 0, 0, 1, 0, 0, 0, 0, 1]
          },
          "parentMatrixWorld": {
            "elements": [1, 0, 0, 0, 0, 1, 0, 0, 0, 0, 1, 0, 0, 0, 0, 1]
          }
        }
      }
    },
    {
      "matrix": [
        10, 0, 0, 0, 0, 9.396926207859085, 3.4202014332566866, 0, 0,
        -3.4202014332566866, 9.396926207859085, 0, 0, 0, 0, 1
      ],
      "name": "Body1",
      "extras": {
        "transformData": {
          "eulerOrder": "ZYX",
          "scale": [10, 10, 10],
          "parentMatrix": {
            "elements": [
              0.1, 0, 0, 0, 0, -0.01736481776669303, -0.09848077530122082, 0, 0,
              0.09848077530122082, -0.01736481776669303, 0, 0,
              3.241008024313601, 0, 1
            ]
          },
          "parentMatrixWorld": {
            "elements": [
              0.1, 0, 0, 0, 0, -0.01736481776669303, -0.09848077530122082, 0, 0,
              0.09848077530122082, -0.01736481776669303, 0, 0,
              3.241008024313601, 0, 1
            ]
          }
        }
      },
      "mesh": 0
    },
    {
      "matrix": [
        0.1, 0, 0, 0, 0, -0.01736481776669303, -0.09848077530122082, 0, 0,
        0.09848077530122082, -0.01736481776669303, 0, 0, 3.241008024313601, 0, 1
      ],
      "name": "Elektra_Boiler_knob_cover_v6",
      "extras": {
        "transformData": {
          "eulerOrder": "ZYX",
          "parentMatrix": {
            "elements": [1, 0, 0, 0, 0, 1, 0, 0, 0, 0, 1, 0, 0, 0, 0, 1]
          },
          "parentMatrixWorld": {
            "elements": [1, 0, 0, 0, 0, 1, 0, 0, 0, 0, 1, 0, 0, 0, 0, 1]
          }
        }
      },
      "children": [2]
    }
  ],
  "extensions": {
    "KHR_lights_punctual": {
      "lights": [
        {
          "name": "PointLight",
          "color": [0.9911020971136257, 0.9911020971136257, 0.9911020971136257],
          "intensity": 1,
          "type": "point"
        }
      ]
    }
  },
  "bufferViews": [
    {
      "buffer": 0,
      "byteOffset": 0,
      "byteLength": 298656,
      "target": 34962,
      "byteStride": 12
    },
    {
      "buffer": 0,
      "byteOffset": 298656,
      "byteLength": 298656,
      "target": 34962,
      "byteStride": 12
    },
    {
      "buffer": 0,
      "byteOffset": 597312,
      "byteLength": 199104,
      "target": 34962,
      "byteStride": 8
    }
  ],
  "buffers": [
    {
      "byteLength": 796416,
      "uri": "data:application/octet-stream;base64,"
    }
  ],
  "accessors": [
    {
      "bufferView": 0,
      "componentType": 5126,
      "count": 24888,
      "max": [2.1241159439086914, 2.100001811981201, 3.25],
      "min": [-2.1241159439086914, -2.100001811981201, 0],
      "type": "VEC3"
    },
    {
      "bufferView": 1,
      "componentType": 5126,
      "count": 24888,
      "max": [1, 1, 1],
      "min": [-1, -1, -1],
      "type": "VEC3"
    },
    {
      "bufferView": 2,
      "componentType": 5126,
      "count": 24888,
      "max": [2.1241159439086914, 5.456173419952393],
      "min": [-2.964240312576294, -5.053167819976807],
      "type": "VEC2"
    }
  ],
  "materials": [
    {
      "pbrMetallicRoughness": {
        "baseColorFactor": [
          0.9647058823529412, 0.7019607843137254, 0.15294117647058825, 1
        ],
        "metallicFactor": 0.5,
        "roughnessFactor": 0.5
      },
      "name": "Phenolic (Amber)"
    }
  ],
  "meshes": [
    {
      "primitives": [
        {
          "mode": 4,
          "attributes": {
            "POSITION": 0,
            "NORMAL": 1,
            "TEXCOORD_0": 2
          },
          "material": 0
        }
      ]
    }
  ],
  "extensionsUsed": ["KHR_lights_punctual"]
}
