{
  "asset": {
    "version": "2.0",
    "generator": "THREE.GLTFExporter"
  },
  "scenes": [
    {
      "name": "Scene",
      "nodes": [
        0,
        2
      ]
    }
  ],
  "scene": 0,
  "nodes": [
    {
      "matrix": [
        1,
        0,
        0,
        0,
        0,
        1,
        0,
        0,
        0,
        0,
        1,
        0,
        -12.436875129348937,
        12.49124684046197,
        15.727880831388049,
        1
      ],
      "name": "PointLight",
      "extensions": {
        "KHR_lights_punctual": {
          "light": 0
        }
      }
    },
    {
      "matrix": [
        10,
        0,
        0,
        0,
        0,
        10,
        0,
        0,
        0,
        0,
        10,
        0,
        0,
        -11.909060464457923,
        6.173070611836035,
        1
      ],
      "name": "Body1",
      "extras": {
        "transformData": {
          "eulerOrder": "ZYX",
          "scale": [
            10,
            10,
            10
          ],
          "parentMatrix": {
            "elements": [
              0.1,
              0,
              0,
              0,
              0,
              0.04601997847838516,
              -0.08878153851364014,
              0,
              0,
              0.08878153851364014,
              0.04601997847838516,
              0,
              -0.08197418120785116,
              8.064550685223066,
              0,
              1
            ]
          },
          "parentMatrixWorld": {
            "elements": [
              0.1,
              0,
              0,
              0,
              0,
              0.04601997847838516,
              -0.08878153851364014,
              0,
              0,
              0.08878153851364014,
              0.04601997847838516,
              0,
              -0.08197418120785116,
              8.064550685223066,
              0,
              1
            ]
          }
        }
      },
      "mesh": 0
    },
    {
      "matrix": [
        0.1,
        0,
        0,
        0,
        0,
        0.04601997847838516,
        -0.08878153851364014,
        0,
        0,
        0.08878153851364014,
        0.04601997847838516,
        0,
        -0.08197418120785116,
        8.064550685223066,
        0,
        1
      ],
      "name": "Elektra_Steam_Knob_v5",
      "extras": {
        "transformData": {
          "eulerOrder": "ZYX",
          "parentMatrix": {
            "elements": [
              1,
              0,
              0,
              0,
              0,
              1,
              0,
              0,
              0,
              0,
              1,
              0,
              0,
              0,
              0,
              1
            ]
          },
          "parentMatrixWorld": {
            "elements": [
              1,
              0,
              0,
              0,
              0,
              1,
              0,
              0,
              0,
              0,
              1,
              0,
              0,
              0,
              0,
              1
            ]
          }
        }
      },
      "children": [
        1
      ]
    }
  ],
  "extensions": {
    "KHR_lights_punctual": {
      "lights": [
        {
          "name": "PointLight",
          "color": [
            0.9911020971136257,
            0.9911020971136257,
            0.9911020971136257
          ],
          "intensity": 1,
          "type": "point"
        }
      ]
    }
  },
  "bufferViews": [
    {
      "buffer": 0,
      "byteOffset": 0,
      "byteLength": 510624,
      "target": 34962,
      "byteStride": 12
    },
    {
      "buffer": 0,
      "byteOffset": 510624,
      "byteLength": 510624,
      "target": 34962,
      "byteStride": 12
    },
    {
      "buffer": 0,
      "byteOffset": 1021248,
      "byteLength": 340416,
      "target": 34962,
      "byteStride": 8
    }
  ],
  "buffers": [
    {
      "byteLength": 1361664,
      "uri": "data:application/octet-stream;base64,"
    }
  ],
  "accessors": [
    {
      "bufferView": 0,
      "componentType": 5126,
      "count": 42552,
      "max": [
        1.73199462890625,
        0.3314739167690277,
        2.4000000953674316
      ],
      "min": [
        -0.7177019715309143,
        -2.724409341812134,
        0
      ],
      "type": "VEC3"
    },
    {
      "bufferView": 1,
      "componentType": 5126,
      "count": 42552,
      "max": [
        0.9999998807907104,
        0.9999999403953552,
        1
      ],
      "min": [
        -0.9999997019767761,
        -0.9999999403953552,
        -1
      ],
      "type": "VEC3"
    },
    {
      "bufferView": 2,
      "componentType": 5126,
      "count": 42552,
      "max": [
        1.1832845211029053,
        3.111327886581421
      ],
      "min": [
        -2.200000047683716,
        -3.111327886581421
      ],
      "type": "VEC2"
    }
  ],
  "materials": [
    {
      "pbrMetallicRoughness": {
        "baseColorFactor": [
          0.9647058823529412,
          0.7019607843137254,
          0.15294117647058825,
          1
        ],
        "metallicFactor": 0.5,
        "roughnessFactor": 0.5
      },
      "name": "Phenolic (Amber)"
    }
  ],
  "meshes": [
    {
      "primitives": [
        {
          "mode": 4,
          "attributes": {
            "POSITION": 0,
            "NORMAL": 1,
            "TEXCOORD_0": 2
          },
          "material": 0
        }
      ]
    }
  ],
  "extensionsUsed": [
    "KHR_lights_punctual"
  ]
}