{
  "asset": {
    "version": "2.0",
    "generator": "THREE.GLTFExporter"
  },
  "scenes": [
    {
      "name": "Scene",
      "nodes": [
        3,
        4
      ]
    }
  ],
  "scene": 0,
  "nodes": [
    {
      "matrix": [
        10,
        0,
        0,
        0,
        0,
        10,
        0,
        0,
        0,
        0,
        10,
        0,
        0,
        0,
        0,
        1
      ],
      "name": "Case",
      "extras": {
        "transformData": {
          "eulerOrder": "ZYX",
          "scale": [
            10,
            10,
            10
          ],
          "parentMatrix": {
            "elements": [
              0.09076733711903688,
              -0.024321034680169388,
              0.03420201433256687,
              0,
              0.03303660895493521,
              -0.008852132690137694,
              -0.09396926207859084,
              0,
              0.02588190451025207,
              0.09659258262890684,
              0,
              0,
              -2.004160334944636,
              1.7450471178886922,
              -1.2244034877896635,
              1
            ]
          },
          "parentMatrixWorld": {
            "elements": [
              0.09076733711903688,
              -0.024321034680169388,
              0.03420201433256687,
              0,
              0.03303660895493521,
              -0.008852132690137694,
              -0.09396926207859084,
              0,
              0.02588190451025207,
              0.09659258262890684,
              0,
              0,
              -2.004160334944636,
              1.7450471178886922,
              -1.2244034877896635,
              1
            ]
          }
        }
      },
      "mesh": 0
    },
    {
      "matrix": [
        9.92,
        0,
        0,
        0,
        0,
        9.98,
        0,
        0,
        0,
        0,
        10,
        0,
        0,
        0,
        0,
        1
      ],
      "name": "Lid",
      "extras": {
        "transformData": {
          "eulerOrder": "ZYX",
          "scale": [
            10,
            10,
            10
          ],
          "parentMatrix": {
            "elements": [
              0.09076733711903688,
              -0.024321034680169388,
              0.03420201433256687,
              0,
              0.03303660895493521,
              -0.008852132690137694,
              -0.09396926207859084,
              0,
              0.02588190451025207,
              0.09659258262890684,
              0,
              0,
              -2.004160334944636,
              1.7450471178886922,
              -1.2244034877896635,
              1
            ]
          },
          "parentMatrixWorld": {
            "elements": [
              0.09076733711903688,
              -0.024321034680169388,
              0.03420201433256687,
              0,
              0.03303660895493521,
              -0.008852132690137694,
              -0.09396926207859084,
              0,
              0.02588190451025207,
              0.09659258262890684,
              0,
              0,
              -2.004160334944636,
              1.7450471178886922,
              -1.2244034877896635,
              1
            ]
          }
        }
      },
      "mesh": 1
    },
    {
      "matrix": [
        10,
        0,
        0,
        0,
        0,
        10,
        0,
        0,
        0,
        0,
        10,
        0,
        0,
        0,
        0,
        1
      ],
      "name": "Knob",
      "extras": {
        "transformData": {
          "eulerOrder": "ZYX",
          "scale": [
            10,
            10,
            10
          ],
          "parentMatrix": {
            "elements": [
              0.09076733711903688,
              -0.024321034680169388,
              0.03420201433256687,
              0,
              0.03303660895493521,
              -0.008852132690137694,
              -0.09396926207859084,
              0,
              0.02588190451025207,
              0.09659258262890684,
              0,
              0,
              -2.004160334944636,
              1.7450471178886922,
              -1.2244034877896635,
              1
            ]
          },
          "parentMatrixWorld": {
            "elements": [
              0.09076733711903688,
              -0.024321034680169388,
              0.03420201433256687,
              0,
              0.03303660895493521,
              -0.008852132690137694,
              -0.09396926207859084,
              0,
              0.02588190451025207,
              0.09659258262890684,
              0,
              0,
              -2.004160334944636,
              1.7450471178886922,
              -1.2244034877896635,
              1
            ]
          }
        }
      },
      "mesh": 2
    },
    {
      "matrix": [
        0.09076733711903688,
        -0.024321034680169388,
        0.03420201433256687,
        0,
        0.03303660895493521,
        -0.008852132690137694,
        -0.09396926207859084,
        0,
        0.02588190451025207,
        0.09659258262890684,
        0,
        0,
        -2.004160334944636,
        1.7450471178886922,
        -1.2244034877896635,
        1
      ],
      "name": "RAMA_Film_Canister_Clone_v8",
      "extras": {
        "transformData": {
          "eulerOrder": "ZYX",
          "parentMatrix": {
            "elements": [
              1,
              0,
              0,
              0,
              0,
              1,
              0,
              0,
              0,
              0,
              1,
              0,
              0,
              0,
              0,
              1
            ]
          },
          "parentMatrixWorld": {
            "elements": [
              1,
              0,
              0,
              0,
              0,
              1,
              0,
              0,
              0,
              0,
              1,
              0,
              0,
              0,
              0,
              1
            ]
          }
        }
      },
      "children": [
        0,
        1,
        2
      ]
    },
    {
      "matrix": [
        1,
        0,
        0,
        0,
        0,
        1,
        0,
        0,
        0,
        0,
        1,
        0,
        -12.436875129348937,
        12.49124684046197,
        15.727880831388049,
        1
      ],
      "name": "PointLight",
      "extensions": {
        "KHR_lights_punctual": {
          "light": 0
        }
      }
    }
  ],
  "bufferViews": [
    {
      "buffer": 0,
      "byteOffset": 0,
      "byteLength": 72792,
      "target": 34962,
      "byteStride": 12
    },
    {
      "buffer": 0,
      "byteOffset": 72792,
      "byteLength": 72792,
      "target": 34962,
      "byteStride": 12
    },
    {
      "buffer": 0,
      "byteOffset": 145584,
      "byteLength": 48528,
      "target": 34962,
      "byteStride": 8
    },
    {
      "buffer": 0,
      "byteOffset": 194112,
      "byteLength": 88200,
      "target": 34962,
      "byteStride": 12
    },
    {
      "buffer": 0,
      "byteOffset": 282312,
      "byteLength": 88200,
      "target": 34962,
      "byteStride": 12
    },
    {
      "buffer": 0,
      "byteOffset": 370512,
      "byteLength": 58800,
      "target": 34962,
      "byteStride": 8
    },
    {
      "buffer": 0,
      "byteOffset": 429312,
      "byteLength": 89640,
      "target": 34962,
      "byteStride": 12
    },
    {
      "buffer": 0,
      "byteOffset": 518952,
      "byteLength": 89640,
      "target": 34962,
      "byteStride": 12
    },
    {
      "buffer": 0,
      "byteOffset": 608592,
      "byteLength": 59760,
      "target": 34962,
      "byteStride": 8
    }
  ],
  "buffers": [
    {
      "byteLength": 668352,
      "uri": "data:application/octet-stream;base64,"
    }
  ],
  "accessors": [
    {
      "bufferView": 0,
      "componentType": 5126,
      "count": 6066,
      "max": [
        6.5,
        1.649999976158142,
        6.300000190734863
      ],
      "min": [
        -6.5,
        -1.649999976158142,
        -0.30000001192092896
      ],
      "type": "VEC3"
    },
    {
      "bufferView": 1,
      "componentType": 5126,
      "count": 6066,
      "max": [
        1,
        1,
        1
      ],
      "min": [
        -1,
        -1,
        -1
      ],
      "type": "VEC3"
    },
    {
      "bufferView": 2,
      "componentType": 5126,
      "count": 6066,
      "max": [
        9.699999809265137,
        6.300000190734863
      ],
      "min": [
        -7.275000095367432,
        -6.300000190734863
      ],
      "type": "VEC2"
    },
    {
      "bufferView": 3,
      "componentType": 5126,
      "count": 7350,
      "max": [
        6.5,
        1.649999976158142,
        7
      ],
      "min": [
        -6.5,
        -1.649999976158142,
        6.139999866485596
      ],
      "type": "VEC3"
    },
    {
      "bufferView": 4,
      "componentType": 5126,
      "count": 7350,
      "max": [
        1,
        1,
        1
      ],
      "min": [
        -1,
        -1,
        -1
      ],
      "type": "VEC3"
    },
    {
      "bufferView": 5,
      "componentType": 5126,
      "count": 7350,
      "max": [
        9.699999809265137,
        4.666991710662842
      ],
      "min": [
        -6.5,
        -4.242719650268555
      ],
      "type": "VEC2"
    },
    {
      "bufferView": 6,
      "componentType": 5126,
      "count": 7470,
      "max": [
        1.2539702653884888,
        1.25223970413208,
        7
      ],
      "min": [
        -1.2539702653884888,
        -1.25223970413208,
        5.5
      ],
      "type": "VEC3"
    },
    {
      "bufferView": 7,
      "componentType": 5126,
      "count": 7470,
      "max": [
        1,
        1,
        1
      ],
      "min": [
        -1,
        -1,
        -1
      ],
      "type": "VEC3"
    },
    {
      "bufferView": 8,
      "componentType": 5126,
      "count": 7470,
      "max": [
        1.2539702653884888,
        3.3755922317504883
      ],
      "min": [
        -1.2539702653884888,
        -3.4776413440704346
      ],
      "type": "VEC2"
    }
  ],
  "materials": [
    {
      "pbrMetallicRoughness": {
        "baseColorFactor": [
          0.6172065624120635,
          0.6172065624120635,
          0.6172065624120635,
          1
        ],
        "metallicFactor": 0.5,
        "roughnessFactor": 0.5
      },
      "name": "Stainless Steel - Polished"
    },
    {
      "pbrMetallicRoughness": {
        "baseColorFactor": [
          0.17254901960784313,
          0.17254901960784313,
          0.17254901960784313,
          1
        ],
        "metallicFactor": 0.5,
        "roughnessFactor": 0.5
      },
      "name": "Coating - Black Oxide"
    },
    {
      "pbrMetallicRoughness": {
        "baseColorFactor": [
          0.7490196078431373,
          0.7294117647058823,
          0.7019607843137254,
          1
        ],
        "metallicFactor": 0.5,
        "roughnessFactor": 0.5
      },
      "name": "Titanium - Polished"
    }
  ],
  "meshes": [
    {
      "primitives": [
        {
          "mode": 4,
          "attributes": {
            "POSITION": 0,
            "NORMAL": 1,
            "TEXCOORD_0": 2
          },
          "material": 0
        }
      ]
    },
    {
      "primitives": [
        {
          "mode": 4,
          "attributes": {
            "POSITION": 3,
            "NORMAL": 4,
            "TEXCOORD_0": 5
          },
          "material": 1
        }
      ]
    },
    {
      "primitives": [
        {
          "mode": 4,
          "attributes": {
            "POSITION": 6,
            "NORMAL": 7,
            "TEXCOORD_0": 8
          },
          "material": 2
        }
      ]
    }
  ],
  "extensions": {
    "KHR_lights_punctual": {
      "lights": [
        {
          "name": "PointLight",
          "color": [
            1,
            1,
            1
          ],
          "intensity": 1,
          "type": "point"
        }
      ]
    }
  },
  "extensionsUsed": [
    "KHR_lights_punctual"
  ]
}