{
  "asset": {
    "version": "2.0",
    "generator": "THREE.GLTFExporter"
  },
  "scenes": [
    {
      "name": "Scene",
      "nodes": [
        0,
        2
      ]
    }
  ],
  "scene": 0,
  "nodes": [
    {
      "matrix": [
        1,
        0,
        0,
        0,
        0,
        1,
        0,
        0,
        0,
        0,
        1,
        0,
        -12.436875129348937,
        12.49124684046197,
        15.727880831388049,
        1
      ],
      "name": "PointLight",
      "extensions": {
        "KHR_lights_punctual": {
          "light": 0
        }
      }
    },
    {
      "matrix": [
        7.4685716493154795,
        0.5288425124098733,
        6.628782928721462,
        0,
        6.004885776764546,
        3.7462119340862654,
        -7.064505853413989,
        0,
        -2.856883674049736,
        9.256685245917012,
        2.4803213362325516,
        0,
        61.183040241441056,
        -87.35801640693282,
        -105.63620855668535,
        1
      ],
      "name": "Body1",
      "extras": {
        "transformData": {
          "eulerOrder": "ZYX",
          "scale": [
            10,
            10,
            10
          ],
          "parentMatrix": {
            "elements": [
              0.1,
              0,
              0,
              0,
              0,
              0.1,
              0,
              0,
              0,
              0,
              0.1,
              0,
              0,
              9.554862363185986,
              5.485654496552968,
              1
            ]
          },
          "parentMatrixWorld": {
            "elements": [
              0.1,
              0,
              0,
              0,
              0,
              0.1,
              0,
              0,
              0,
              0,
              0.1,
              0,
              0,
              9.554862363185986,
              5.485654496552968,
              1
            ]
          }
        }
      },
      "mesh": 0
    },
    {
      "matrix": [
        0.1,
        0,
        0,
        0,
        0,
        0.1,
        0,
        0,
        0,
        0,
        0.1,
        0,
        0,
        9.554862363185986,
        5.485654496552968,
        1
      ],
      "name": "Better_keeb_wall_mounts_v8",
      "extras": {
        "transformData": {
          "eulerOrder": "ZYX",
          "parentMatrix": {
            "elements": [
              1,
              0,
              0,
              0,
              0,
              1,
              0,
              0,
              0,
              0,
              1,
              0,
              0,
              0,
              0,
              1
            ]
          },
          "parentMatrixWorld": {
            "elements": [
              1,
              0,
              0,
              0,
              0,
              1,
              0,
              0,
              0,
              0,
              1,
              0,
              0,
              0,
              0,
              1
            ]
          }
        }
      },
      "children": [
        1
      ]
    }
  ],
  "extensions": {
    "KHR_lights_punctual": {
      "lights": [
        {
          "name": "PointLight",
          "color": [
            0.9911020971136257,
            0.9911020971136257,
            0.9911020971136257
          ],
          "intensity": 1,
          "type": "point"
        }
      ]
    }
  },
  "bufferViews": [
    {
      "buffer": 0,
      "byteOffset": 0,
      "byteLength": 67392,
      "target": 34962,
      "byteStride": 12
    },
    {
      "buffer": 0,
      "byteOffset": 67392,
      "byteLength": 67392,
      "target": 34962,
      "byteStride": 12
    },
    {
      "buffer": 0,
      "byteOffset": 134784,
      "byteLength": 44928,
      "target": 34962,
      "byteStride": 8
    }
  ],
  "buffers": [
    {
      "byteLength": 179712,
      "uri": "data:application/octet-stream;base64,"
    }
  ],
  "accessors": [
    {
      "bufferView": 0,
      "componentType": 5126,
      "count": 5616,
      "max": [
        1.1633285284042358,
        -0.9293382167816162,
        9.128353118896484
      ],
      "min": [
        -1.3529634475708008,
        -10.549612998962402,
        2.1940298080444336
      ],
      "type": "VEC3"
    },
    {
      "bufferView": 1,
      "componentType": 5126,
      "count": 5616,
      "max": [
        0.9999985694885254,
        0.9999985694885254,
        0.9999824166297913
      ],
      "min": [
        -0.9999985694885254,
        -0.999996542930603,
        -0.9999735355377197
      ],
      "type": "VEC3"
    },
    {
      "bufferView": 2,
      "componentType": 5126,
      "count": 5616,
      "max": [
        6.383005142211914,
        4.490023612976074
      ],
      "min": [
        -14.075032234191895,
        -4.512726306915283
      ],
      "type": "VEC2"
    }
  ],
  "materials": [
    {
      "pbrMetallicRoughness": {
        "baseColorFactor": [
          0.9647058823529412,
          0.9647058823529412,
          0.9529411764705882,
          1
        ],
        "metallicFactor": 0.5,
        "roughnessFactor": 0.5
      },
      "name": "Rilsan Invent Natural - PA 11"
    }
  ],
  "meshes": [
    {
      "primitives": [
        {
          "mode": 4,
          "attributes": {
            "POSITION": 0,
            "NORMAL": 1,
            "TEXCOORD_0": 2
          },
          "material": 0
        }
      ]
    }
  ],
  "extensionsUsed": [
    "KHR_lights_punctual"
  ]
}