{
  "asset": {
    "version": "2.0",
    "generator": "THREE.GLTFExporter"
  },
  "scenes": [
    {
      "name": "Scene",
      "nodes": [
        0,
        3
      ]
    }
  ],
  "scene": 0,
  "nodes": [
    {
      "matrix": [
        1,
        0,
        0,
        0,
        0,
        1,
        0,
        0,
        0,
        0,
        1,
        0,
        -12.436875129348937,
        12.49124684046197,
        15.727880831388049,
        1
      ],
      "name": "PointLight",
      "extensions": {
        "KHR_lights_punctual": {
          "light": 0
        }
      }
    },
    {
      "matrix": [
        10,
        0,
        0,
        0,
        0,
        10,
        0,
        0,
        0,
        0,
        10,
        0,
        0,
        0,
        0,
        1
      ],
      "name": "Body8",
      "extras": {
        "transformData": {
          "eulerOrder": "ZYX",
          "scale": [
            10,
            10,
            10
          ],
          "parentMatrix": {
            "elements": [
              -4.4408920985006264e-17,
              0,
              0.10000000000000005,
              0,
              0.09961946980917459,
              0.008715574274765792,
              0,
              0,
              -0.008715574274765837,
              0.09961946980917459,
              -4.4408920985006264e-17,
              0,
              5.544005344581496,
              5.735954630317799,
              0,
              1
            ]
          },
          "parentMatrixWorld": {
            "elements": [
              -4.4408920985006264e-17,
              0,
              0.10000000000000005,
              0,
              0.09961946980917459,
              0.008715574274765792,
              0,
              0,
              -0.008715574274765837,
              0.09961946980917459,
              -4.4408920985006264e-17,
              0,
              5.544005344581496,
              5.735954630317799,
              0,
              1
            ]
          }
        }
      },
      "mesh": 0
    },
    {
      "matrix": [
        10,
        0,
        0,
        0,
        0,
        10,
        0,
        0,
        0,
        0,
        10,
        0,
        0,
        0,
        0,
        1
      ],
      "name": "Body16",
      "extras": {
        "transformData": {
          "eulerOrder": "ZYX",
          "scale": [
            10,
            10,
            10
          ],
          "parentMatrix": {
            "elements": [
              -4.4408920985006264e-17,
              0,
              0.10000000000000005,
              0,
              0.09961946980917459,
              0.008715574274765792,
              0,
              0,
              -0.008715574274765837,
              0.09961946980917459,
              -4.4408920985006264e-17,
              0,
              5.544005344581496,
              5.735954630317799,
              0,
              1
            ]
          },
          "parentMatrixWorld": {
            "elements": [
              -4.4408920985006264e-17,
              0,
              0.10000000000000005,
              0,
              0.09961946980917459,
              0.008715574274765792,
              0,
              0,
              -0.008715574274765837,
              0.09961946980917459,
              -4.4408920985006264e-17,
              0,
              5.544005344581496,
              5.735954630317799,
              0,
              1
            ]
          }
        }
      },
      "mesh": 1
    },
    {
      "matrix": [
        -4.4408920985006264e-17,
        0,
        0.10000000000000005,
        0,
        0.09961946980917459,
        0.008715574274765792,
        0,
        0,
        -0.008715574274765837,
        0.09961946980917459,
        -4.4408920985006264e-17,
        0,
        5.544005344581496,
        5.735954630317799,
        0,
        1
      ],
      "name": "Parker_Line_Building_necklace_v4",
      "extras": {
        "transformData": {
          "eulerOrder": "ZYX",
          "parentMatrix": {
            "elements": [
              1,
              0,
              0,
              0,
              0,
              1,
              0,
              0,
              0,
              0,
              1,
              0,
              0,
              0,
              0,
              1
            ]
          },
          "parentMatrixWorld": {
            "elements": [
              1,
              0,
              0,
              0,
              0,
              1,
              0,
              0,
              0,
              0,
              1,
              0,
              0,
              0,
              0,
              1
            ]
          }
        }
      },
      "children": [
        1,
        2
      ]
    }
  ],
  "extensions": {
    "KHR_lights_punctual": {
      "lights": [
        {
          "name": "PointLight",
          "color": [
            0.9911020971136257,
            0.9911020971136257,
            0.9911020971136257
          ],
          "intensity": 1,
          "type": "point"
        }
      ]
    }
  },
  "bufferViews": [
    {
      "buffer": 0,
      "byteOffset": 0,
      "byteLength": 33192,
      "target": 34962,
      "byteStride": 12
    },
    {
      "buffer": 0,
      "byteOffset": 33192,
      "byteLength": 33192,
      "target": 34962,
      "byteStride": 12
    },
    {
      "buffer": 0,
      "byteOffset": 66384,
      "byteLength": 22128,
      "target": 34962,
      "byteStride": 8
    },
    {
      "buffer": 0,
      "byteOffset": 88512,
      "byteLength": 7632,
      "target": 34962,
      "byteStride": 12
    },
    {
      "buffer": 0,
      "byteOffset": 96144,
      "byteLength": 7632,
      "target": 34962,
      "byteStride": 12
    },
    {
      "buffer": 0,
      "byteOffset": 103776,
      "byteLength": 5088,
      "target": 34962,
      "byteStride": 8
    }
  ],
  "buffers": [
    {
      "byteLength": 108864,
      "uri": "data:application/octet-stream;base64,"
    }
  ],
  "accessors": [
    {
      "bufferView": 0,
      "componentType": 5126,
      "count": 2766,
      "max": [
        0.5,
        -1.6982163190841675,
        5.2620038986206055
      ],
      "min": [
        -0.0000352923379978165,
        -3.4762163162231445,
        -1.2686408758163452
      ],
      "type": "VEC3"
    },
    {
      "bufferView": 1,
      "componentType": 5126,
      "count": 2766,
      "max": [
        1,
        1,
        1
      ],
      "min": [
        -1,
        -1,
        -1
      ],
      "type": "VEC3"
    },
    {
      "bufferView": 2,
      "componentType": 5126,
      "count": 2766,
      "max": [
        6.53064489364624,
        3.9800000190734863
      ],
      "min": [
        -2.200000047683716,
        -5.3386430740356445
      ],
      "type": "VEC2"
    },
    {
      "bufferView": 3,
      "componentType": 5126,
      "count": 636,
      "max": [
        0.20000000298023224,
        -2.292522668838501,
        5.662072658538818
      ],
      "min": [
        0,
        -2.8837227821350098,
        5.262072563171387
      ],
      "type": "VEC3"
    },
    {
      "bufferView": 4,
      "componentType": 5126,
      "count": 636,
      "max": [
        1,
        1,
        1
      ],
      "min": [
        -1,
        -1,
        -1
      ],
      "type": "VEC3"
    },
    {
      "bufferView": 5,
      "componentType": 5126,
      "count": 636,
      "max": [
        0.5911999940872192,
        0.2955999970436096
      ],
      "min": [
        -0.2955999970436096,
        -0.5911999940872192
      ],
      "type": "VEC2"
    }
  ],
  "materials": [
    {
      "pbrMetallicRoughness": {
        "baseColorFactor": [
          0.9607843137254902,
          0.9607843137254902,
          0.9647058823529412,
          1
        ],
        "metallicFactor": 0.5,
        "roughnessFactor": 0.5
      },
      "name": "Aluminum - Polished"
    }
  ],
  "meshes": [
    {
      "primitives": [
        {
          "mode": 4,
          "attributes": {
            "POSITION": 0,
            "NORMAL": 1,
            "TEXCOORD_0": 2
          },
          "material": 0
        }
      ]
    },
    {
      "primitives": [
        {
          "mode": 4,
          "attributes": {
            "POSITION": 3,
            "NORMAL": 4,
            "TEXCOORD_0": 5
          },
          "material": 0
        }
      ]
    }
  ],
  "extensionsUsed": [
    "KHR_lights_punctual"
  ]
}