{
  "asset": {
    "version": "2.0",
    "generator": "THREE.GLTFExporter"
  },
  "scenes": [
    {
      "name": "Scene",
      "nodes": [
        0,
        24
      ]
    }
  ],
  "scene": 0,
  "nodes": [
    {
      "matrix": [
        1,
        0,
        0,
        0,
        0,
        1,
        0,
        0,
        0,
        0,
        1,
        0,
        -12.436875129348937,
        12.49124684046197,
        15.727880831388049,
        1
      ],
      "name": "PointLight",
      "extensions": {
        "KHR_lights_punctual": {
          "light": 0
        }
      }
    },
    {
      "name": "Body1",
      "mesh": 0
    },
    {
      "name": "Body1",
      "children": [
        1
      ]
    },
    {
      "name": "Body1",
      "mesh": 1
    },
    {
      "name": "Body1",
      "children": [
        3
      ]
    },
    {
      "name": "Body1",
      "mesh": 2
    },
    {
      "name": "Body1",
      "children": [
        5
      ]
    },
    {
      "name": "Body1"
    },
    {
      "name": "Body2",
      "mesh": 3
    },
    {
      "name": "Body2",
      "children": [
        8
      ]
    },
    {
      "name": "Body2",
      "mesh": 4
    },
    {
      "name": "Body2",
      "children": [
        10
      ]
    },
    {
      "name": "Body2",
      "mesh": 5
    },
    {
      "name": "Body2",
      "children": [
        12
      ]
    },
    {
      "name": "Body3",
      "mesh": 6
    },
    {
      "name": "Body3",
      "children": [
        14
      ]
    },
    {
      "name": "Body4",
      "mesh": 7
    },
    {
      "name": "Body4",
      "children": [
        16
      ]
    },
    {
      "name": "Body4",
      "mesh": 8
    },
    {
      "name": "Body4",
      "children": [
        18
      ]
    },
    {
      "name": "Body5",
      "mesh": 9
    },
    {
      "name": "Body5",
      "children": [
        20
      ]
    },
    {
      "name": "Body5",
      "mesh": 10
    },
    {
      "name": "Body5",
      "children": [
        22
      ]
    },
    {
      "matrix": [
        -2.2204460492503132e-17,
        0.09063077870366504,
        -0.042261826174069955,
        0,
        -0.09063077870366504,
        0.017860619515673005,
        0.03830222215594891,
        0,
        0.042261826174069955,
        0.03830222215594891,
        0.08213938048432697,
        0,
        15.507019217895945,
        0,
        -16.98161290233298,
        1
      ],
      "children": [
        2,
        4,
        6,
        7,
        9,
        11,
        13,
        15,
        17,
        19,
        21,
        23
      ]
    }
  ],
  "extensions": {
    "KHR_lights_punctual": {
      "lights": [
        {
          "name": "PointLight",
          "color": [
            0.9911020971136257,
            0.9911020971136257,
            0.9911020971136257
          ],
          "intensity": 1,
          "type": "point"
        }
      ]
    }
  },
  "bufferViews": [
    {
      "buffer": 0,
      "byteOffset": 0,
      "byteLength": 40320,
      "target": 34962,
      "byteStride": 12
    },
    {
      "buffer": 0,
      "byteOffset": 40320,
      "byteLength": 40320,
      "target": 34962,
      "byteStride": 12
    },
    {
      "buffer": 0,
      "byteOffset": 80640,
      "byteLength": 439272,
      "target": 34962,
      "byteStride": 12
    },
    {
      "buffer": 0,
      "byteOffset": 519912,
      "byteLength": 439272,
      "target": 34962,
      "byteStride": 12
    },
    {
      "buffer": 0,
      "byteOffset": 959184,
      "byteLength": 46368,
      "target": 34962,
      "byteStride": 12
    },
    {
      "buffer": 0,
      "byteOffset": 1005552,
      "byteLength": 46368,
      "target": 34962,
      "byteStride": 12
    },
    {
      "buffer": 0,
      "byteOffset": 1051920,
      "byteLength": 51552,
      "target": 34962,
      "byteStride": 12
    },
    {
      "buffer": 0,
      "byteOffset": 1103472,
      "byteLength": 51552,
      "target": 34962,
      "byteStride": 12
    },
    {
      "buffer": 0,
      "byteOffset": 1155024,
      "byteLength": 77040,
      "target": 34962,
      "byteStride": 12
    },
    {
      "buffer": 0,
      "byteOffset": 1232064,
      "byteLength": 77040,
      "target": 34962,
      "byteStride": 12
    },
    {
      "buffer": 0,
      "byteOffset": 1309104,
      "byteLength": 37008,
      "target": 34962,
      "byteStride": 12
    },
    {
      "buffer": 0,
      "byteOffset": 1346112,
      "byteLength": 37008,
      "target": 34962,
      "byteStride": 12
    },
    {
      "buffer": 0,
      "byteOffset": 1383120,
      "byteLength": 39024,
      "target": 34962,
      "byteStride": 12
    },
    {
      "buffer": 0,
      "byteOffset": 1422144,
      "byteLength": 39024,
      "target": 34962,
      "byteStride": 12
    },
    {
      "buffer": 0,
      "byteOffset": 1461168,
      "byteLength": 3672,
      "target": 34962,
      "byteStride": 12
    },
    {
      "buffer": 0,
      "byteOffset": 1464840,
      "byteLength": 3672,
      "target": 34962,
      "byteStride": 12
    },
    {
      "buffer": 0,
      "byteOffset": 1468512,
      "byteLength": 3600,
      "target": 34962,
      "byteStride": 12
    },
    {
      "buffer": 0,
      "byteOffset": 1472112,
      "byteLength": 3600,
      "target": 34962,
      "byteStride": 12
    },
    {
      "buffer": 0,
      "byteOffset": 1475712,
      "byteLength": 3672,
      "target": 34962,
      "byteStride": 12
    },
    {
      "buffer": 0,
      "byteOffset": 1479384,
      "byteLength": 3672,
      "target": 34962,
      "byteStride": 12
    },
    {
      "buffer": 0,
      "byteOffset": 1483056,
      "byteLength": 3600,
      "target": 34962,
      "byteStride": 12
    },
    {
      "buffer": 0,
      "byteOffset": 1486656,
      "byteLength": 3600,
      "target": 34962,
      "byteStride": 12
    }
  ],
  "buffers": [
    {
      "byteLength": 1490256,
      "uri": "data:application/octet-stream;base64,"
    }
  ],
  "accessors": [
    {
      "bufferView": 0,
      "componentType": 5126,
      "count": 3360,
      "max": [
        96.19510650634766,
        125.99999237060547,
        18.416053771972656
      ],
      "min": [
        -0.8715569972991943,
        0,
        4.980972766876221
      ],
      "type": "VEC3"
    },
    {
      "bufferView": 1,
      "componentType": 5126,
      "count": 3360,
      "max": [
        0.44955918192863464,
        0.010007116012275219,
        0.010007116012275219
      ],
      "min": [
        0.44955918192863464,
        0.010007116012275219,
        0.010007116012275219
      ],
      "type": "VEC3"
    },
    {
      "bufferView": 2,
      "componentType": 5126,
      "count": 36606,
      "max": [
        95.75933074951172,
        397,
        23.048404693603516
      ],
      "min": [
        -0.9587129950523376,
        198.5,
        9.961947441101074
      ],
      "type": "VEC3"
    },
    {
      "bufferView": 3,
      "componentType": 5126,
      "count": 36606,
      "max": [
        0.8307968974113464,
        0.8307968974113464,
        0.7800500988960266
      ],
      "min": [
        0.8307968974113464,
        0.8307968974113464,
        0.7800500988960266
      ],
      "type": "VEC3"
    },
    {
      "bufferView": 4,
      "componentType": 5126,
      "count": 3864,
      "max": [
        97.74246215820312,
        397,
        13.467373847961426
      ],
      "min": [
        -0.4357779920101166,
        198.5,
        0
      ],
      "type": "VEC3"
    },
    {
      "bufferView": 5,
      "componentType": 5126,
      "count": 3864,
      "max": [
        0.8307968974113464,
        0.8307968974113464,
        0.7800500988960266
      ],
      "min": [
        0.8307968974113464,
        0.8307968974113464,
        0.7800500988960266
      ],
      "type": "VEC3"
    },
    {
      "bufferView": 6,
      "componentType": 5126,
      "count": 4296,
      "max": [
        95.75933074951172,
        198.5,
        23.048404693603516
      ],
      "min": [
        -0.9587129950523376,
        0,
        9.961947441101074
      ],
      "type": "VEC3"
    },
    {
      "bufferView": 7,
      "componentType": 5126,
      "count": 4296,
      "max": [
        0.8307968974113464,
        0.8307968974113464,
        0.7800500988960266
      ],
      "min": [
        0.8307968974113464,
        0.8307968974113464,
        0.7800500988960266
      ],
      "type": "VEC3"
    },
    {
      "bufferView": 8,
      "componentType": 5126,
      "count": 6420,
      "max": [
        96.19510650634766,
        285,
        18.416053771972656
      ],
      "min": [
        -0.8715569972991943,
        87,
        4.980972766876221
      ],
      "type": "VEC3"
    },
    {
      "bufferView": 9,
      "componentType": 5126,
      "count": 6420,
      "max": [
        0.44955918192863464,
        0.010007116012275219,
        0.010007116012275219
      ],
      "min": [
        0.44955918192863464,
        0.010007116012275219,
        0.010007116012275219
      ],
      "type": "VEC3"
    },
    {
      "bufferView": 10,
      "componentType": 5126,
      "count": 3084,
      "max": [
        97.74246215820312,
        198.5,
        13.467373847961426
      ],
      "min": [
        -0.4357779920101166,
        0,
        0
      ],
      "type": "VEC3"
    },
    {
      "bufferView": 11,
      "componentType": 5126,
      "count": 3084,
      "max": [
        0.8307968974113464,
        0.8307968974113464,
        0.7800500988960266
      ],
      "min": [
        0.8307968974113464,
        0.8307968974113464,
        0.7800500988960266
      ],
      "type": "VEC3"
    },
    {
      "bufferView": 12,
      "componentType": 5126,
      "count": 3252,
      "max": [
        96.19510650634766,
        397,
        18.416053771972656
      ],
      "min": [
        -0.8715569972991943,
        271,
        4.980972766876221
      ],
      "type": "VEC3"
    },
    {
      "bufferView": 13,
      "componentType": 5126,
      "count": 3252,
      "max": [
        0.44955918192863464,
        0.010007116012275219,
        0.010007116012275219
      ],
      "min": [
        0.44955918192863464,
        0.010007116012275219,
        0.010007116012275219
      ],
      "type": "VEC3"
    },
    {
      "bufferView": 14,
      "componentType": 5126,
      "count": 306,
      "max": [
        51.96246337890625,
        274.498779296875,
        9.370231628417969
      ],
      "min": [
        45.00175476074219,
        267.521728515625,
        0.42377400398254395
      ],
      "type": "VEC3"
    },
    {
      "bufferView": 15,
      "componentType": 5126,
      "count": 306,
      "max": [
        0.8307968974113464,
        0.8307968974113464,
        0.7800500988960266
      ],
      "min": [
        0.8307968974113464,
        0.8307968974113464,
        0.7800500988960266
      ],
      "type": "VEC3"
    },
    {
      "bufferView": 16,
      "componentType": 5126,
      "count": 300,
      "max": [
        52.4726448059082,
        174.41061401367188,
        9.42591667175293
      ],
      "min": [
        45.677371978759766,
        167.58938598632812,
        0.9847919940948486
      ],
      "type": "VEC3"
    },
    {
      "bufferView": 17,
      "componentType": 5126,
      "count": 300,
      "max": [
        0.8307968974113464,
        0.8307968974113464,
        0.7800500988960266
      ],
      "min": [
        0.8307968974113464,
        0.8307968974113464,
        0.7800500988960266
      ],
      "type": "VEC3"
    },
    {
      "bufferView": 18,
      "componentType": 5126,
      "count": 306,
      "max": [
        52.6376838684082,
        347.51092529296875,
        9.429306030273438
      ],
      "min": [
        45.67697525024414,
        340.53387451171875,
        0.48284798860549927
      ],
      "type": "VEC3"
    },
    {
      "bufferView": 19,
      "componentType": 5126,
      "count": 306,
      "max": [
        0.8307968974113464,
        0.8307968974113464,
        0.7800500988960266
      ],
      "min": [
        0.8307968974113464,
        0.8307968974113464,
        0.7800500988960266
      ],
      "type": "VEC3"
    },
    {
      "bufferView": 20,
      "componentType": 5126,
      "count": 300,
      "max": [
        52.4726448059082,
        90.4106216430664,
        9.42591667175293
      ],
      "min": [
        45.677371978759766,
        83.58938598632812,
        0.9847919940948486
      ],
      "type": "VEC3"
    },
    {
      "bufferView": 21,
      "componentType": 5126,
      "count": 300,
      "max": [
        0.8307968974113464,
        0.8307968974113464,
        0.7800500988960266
      ],
      "min": [
        0.8307968974113464,
        0.8307968974113464,
        0.7800500988960266
      ],
      "type": "VEC3"
    }
  ],
  "materials": [
    {
      "pbrMetallicRoughness": {
        "metallicFactor": 0.5,
        "roughnessFactor": 0.5
      }
    },
    {
      "pbrMetallicRoughness": {
        "metallicFactor": 0.5,
        "roughnessFactor": 0.5
      }
    },
    {
      "pbrMetallicRoughness": {
        "metallicFactor": 0.5,
        "roughnessFactor": 0.5
      }
    },
    {
      "pbrMetallicRoughness": {
        "metallicFactor": 0.5,
        "roughnessFactor": 0.5
      }
    },
    {
      "pbrMetallicRoughness": {
        "metallicFactor": 0.5,
        "roughnessFactor": 0.5
      }
    },
    {
      "pbrMetallicRoughness": {
        "metallicFactor": 0.5,
        "roughnessFactor": 0.5
      }
    },
    {
      "pbrMetallicRoughness": {
        "metallicFactor": 0.5,
        "roughnessFactor": 0.5
      }
    },
    {
      "pbrMetallicRoughness": {
        "metallicFactor": 0.5,
        "roughnessFactor": 0.5
      }
    },
    {
      "pbrMetallicRoughness": {
        "metallicFactor": 0.5,
        "roughnessFactor": 0.5
      }
    },
    {
      "pbrMetallicRoughness": {
        "metallicFactor": 0.5,
        "roughnessFactor": 0.5
      }
    },
    {
      "pbrMetallicRoughness": {
        "metallicFactor": 0.5,
        "roughnessFactor": 0.5
      }
    }
  ],
  "meshes": [
    {
      "primitives": [
        {
          "mode": 4,
          "attributes": {
            "POSITION": 0,
            "COLOR_0": 1
          },
          "material": 0
        }
      ]
    },
    {
      "primitives": [
        {
          "mode": 4,
          "attributes": {
            "POSITION": 2,
            "COLOR_0": 3
          },
          "material": 1
        }
      ]
    },
    {
      "primitives": [
        {
          "mode": 4,
          "attributes": {
            "POSITION": 4,
            "COLOR_0": 5
          },
          "material": 2
        }
      ]
    },
    {
      "primitives": [
        {
          "mode": 4,
          "attributes": {
            "POSITION": 6,
            "COLOR_0": 7
          },
          "material": 3
        }
      ]
    },
    {
      "primitives": [
        {
          "mode": 4,
          "attributes": {
            "POSITION": 8,
            "COLOR_0": 9
          },
          "material": 4
        }
      ]
    },
    {
      "primitives": [
        {
          "mode": 4,
          "attributes": {
            "POSITION": 10,
            "COLOR_0": 11
          },
          "material": 5
        }
      ]
    },
    {
      "primitives": [
        {
          "mode": 4,
          "attributes": {
            "POSITION": 12,
            "COLOR_0": 13
          },
          "material": 6
        }
      ]
    },
    {
      "primitives": [
        {
          "mode": 4,
          "attributes": {
            "POSITION": 14,
            "COLOR_0": 15
          },
          "material": 7
        }
      ]
    },
    {
      "primitives": [
        {
          "mode": 4,
          "attributes": {
            "POSITION": 16,
            "COLOR_0": 17
          },
          "material": 8
        }
      ]
    },
    {
      "primitives": [
        {
          "mode": 4,
          "attributes": {
            "POSITION": 18,
            "COLOR_0": 19
          },
          "material": 9
        }
      ]
    },
    {
      "primitives": [
        {
          "mode": 4,
          "attributes": {
            "POSITION": 20,
            "COLOR_0": 21
          },
          "material": 10
        }
      ]
    }
  ],
  "extensionsUsed": [
    "KHR_lights_punctual"
  ]
}